<?xml version="1.0" encoding="utf-8"?>
<!-- Generator: Adobe Illustrator 22.0.1, SVG Export Plug-In . SVG Version: 6.00 Build 0)  -->
<svg version="1.1" id="Layer_1" xmlns="http://www.w3.org/2000/svg" xmlns:xlink="http://www.w3.org/1999/xlink" x="0px" y="0px"
	 viewBox="0 0 191.8 300" style="enable-background:new 0 0 191.8 300;" xml:space="preserve">
<style type="text/css">
	.st0{fill:#FFFFFF;}
</style>
<g>
	<path class="st0" d="M108.9,154.5c-1.8,0-3.2,1.4-3.2,3.2c0,1.8,1.4,3.2,3.2,3.2s3.2-1.4,3.2-3.2
		C112.1,156,110.7,154.5,108.9,154.5z"/>
	<path class="st0" d="M94.4,154.4c-1.7,0-3,1.2-3.2,2.9h6.4C97.4,155.7,96,154.4,94.4,154.4z"/>
	<path class="st0" d="M0,0v300h191.8V0H0z M162.6,137.2c0.7,0,1.3,0.6,1.3,1.3s-0.6,1.3-1.3,1.3s-1.3-0.6-1.3-1.3
		S161.9,137.2,162.6,137.2z M29.6,137.2c0.7,0,1.3,0.6,1.3,1.3s-0.6,1.3-1.3,1.3s-1.3-0.6-1.3-1.3S28.9,137.2,29.6,137.2z
		 M7.2,121.7c-0.7,0-1.3-0.6-1.3-1.3s0.6-1.3,1.3-1.3c0.7,0,1.3,0.6,1.3,1.3S7.9,121.7,7.2,121.7z M38.5,161.8l-11.8-12.1l0.7-0.7
		l11.8,12.1L38.5,161.8z M42.2,161.8L9.3,122.9l0.8-0.6l32.9,38.9L42.2,161.8z M45.7,161.8l-14.5-20.3l0.8-0.6l14.5,20.3L45.7,161.8
		z M49.5,161.7l-8.1-14.4l0.9-0.5l8.1,14.4L49.5,161.7z M53.9,161.3c0,0.2-0.2,0.4-0.4,0.4c-0.2,0-0.4-0.2-0.4-0.4V154
		c0-0.2,0.2-0.4,0.4-0.4c0.2,0,0.4,0.2,0.4,0.4V161.3z M53.9,150.3c0,0.2-0.2,0.4-0.4,0.4c-0.2,0-0.4-0.2-0.4-0.4v-3.5
		c0-0.2,0.2-0.4,0.4-0.4c0.2,0,0.4,0.2,0.4,0.4V150.3z M63.9,161.3c0,0.2-0.2,0.4-0.4,0.4c-0.2,0-0.4-0.2-0.4-0.4v-3.6
		c0-1.8-1.4-3.2-3.2-3.2c-1.8,0-3.2,1.5-3.2,3.2v3.6c0,0.2-0.2,0.4-0.4,0.4c-0.2,0-0.4-0.2-0.4-0.4v-3.6c0-2.2,1.8-4,4-4
		c2.2,0,4,1.8,4,4V161.3z M78.5,150.8h-3.2v10.5c0,0.2-0.2,0.4-0.4,0.4c-0.2,0-0.4-0.2-0.4-0.4v-10.5h-3.2c-0.2,0-0.4-0.2-0.4-0.4
		c0-0.2,0.2-0.4,0.4-0.4h3.2v-3.2c0-0.2,0.2-0.4,0.4-0.4c0.2,0,0.4,0.2,0.4,0.4v3.2h3.2c0.2,0,0.4,0.2,0.4,0.4
		C78.9,150.7,78.7,150.8,78.5,150.8z M88.6,161.3c0,0.2-0.2,0.4-0.4,0.4c-0.2,0-0.4-0.2-0.4-0.4v-3.6c0-1.8-1.4-3.2-3.2-3.2
		c-1.8,0-3.2,1.5-3.2,3.2v3.6c0,0.2-0.2,0.4-0.4,0.4c-0.2,0-0.4-0.2-0.4-0.4v-14.5c0-0.2,0.2-0.4,0.4-0.4c0.2,0,0.4,0.2,0.4,0.4v8.5
		c0.7-1,1.9-1.7,3.2-1.7c2.2,0,4,1.8,4,4V161.3z M98,158h-6.8c0.2,1.6,1.6,2.9,3.2,2.9c0.9,0,1.7-0.3,2.3-1c0.1-0.1,0.4-0.1,0.6,0
		c0.1,0.2,0.1,0.4,0,0.6c-0.8,0.8-1.8,1.2-2.8,1.2c-2.2,0-4-1.8-4-4s1.8-4,4-4c2.2,0,4,1.8,4,4C98.4,157.9,98.2,158,98,158z
		 M112.9,164.9c0,2.2-1.8,4-4,4c-2.2,0-4-1.8-4-4c0-0.2,0.2-0.4,0.4-0.4s0.4,0.2,0.4,0.4c0,1.8,1.4,3.2,3.2,3.2s3.2-1.5,3.2-3.2
		v-4.8c-0.7,1-1.9,1.6-3.2,1.6c-2.2,0-4-1.8-4-4c0-2.2,1.8-4,4-4c2.2,0,4,1.8,4,4V164.9z M122.9,157.7c0,2.2-1.8,4-4,4s-4-1.8-4-4
		V154c0-0.2,0.2-0.4,0.4-0.4s0.4,0.2,0.4,0.4v3.6c0,1.8,1.4,3.2,3.2,3.2c1.8,0,3.2-1.5,3.2-3.2V154c0-0.2,0.2-0.4,0.4-0.4
		c0.2,0,0.4,0.2,0.4,0.4V157.7z M125.6,161.3c0,0.2-0.2,0.4-0.4,0.4s-0.4-0.2-0.4-0.4v-14.5c0-0.2,0.2-0.4,0.4-0.4s0.4,0.2,0.4,0.4
		V161.3z M128.3,161.3c0,0.2-0.2,0.4-0.4,0.4s-0.4-0.2-0.4-0.4v-14.5c0-0.2,0.2-0.4,0.4-0.4s0.4,0.2,0.4,0.4V161.3z M138.3,157.7
		v7.2c0,2.2-1.8,4-4,4c-2.2,0-4-1.8-4-4c0-0.2,0.2-0.4,0.4-0.4s0.4,0.2,0.4,0.4c0,1.8,1.4,3.2,3.2,3.2c1.8,0,3.2-1.4,3.2-3.2V160
		c-0.7,1-1.9,1.6-3.2,1.6c-2.2,0-4-1.8-4-4v-3.6c0-0.2,0.2-0.4,0.4-0.4s0.4,0.2,0.4,0.4v3.6c0,1.8,1.4,3.2,3.2,3.2
		c1.8,0,3.2-1.4,3.2-3.2v-3.6c0-0.2,0.2-0.4,0.4-0.4c0.2,0,0.4,0.2,0.4,0.4V157.7z M141.6,161.2l8.1-14.4l0.9,0.5l-8.1,14.4
		L141.6,161.2z M145.4,161.2l14.5-20.3l0.8,0.6l-14.5,20.3L145.4,161.2z M153.5,161.8l-0.7-0.7l11.8-12.1l0.7,0.7L153.5,161.8z
		 M149.8,161.8l-0.8-0.6l32.9-38.9l0.8,0.6L149.8,161.8z M184.6,121.7c-0.7,0-1.3-0.6-1.3-1.3c0-0.7,0.6-1.3,1.3-1.3
		c0.7,0,1.3,0.6,1.3,1.3C185.9,121.1,185.3,121.7,184.6,121.7z"/>
</g>
</svg>
